<svg xmlns="http://www.w3.org/2000/svg" width="833.5100708007812px" height="997.50390625px" x="0px" y="0px" style="enable-background:new 0 0 1400 980" viewBox="0 0 833.5100708007812 997.50390625"><path fill="none" d="M0 0h833.51v997.504H0z" style="fill:#262626;fill-opacity:0;pointer-events:none"/><defs><clipPath id="a" clipPathUnits="userSpaceOnUse"><path d="m298.121 646.957-16.808 30.145-16.805-30.145-33.399-6.332 22.536-24.469-3.364-34.551 31.032 15.821 31.027-15.821-3.36 34.551 22.54 24.469z"/></clipPath><clipPath id="b" clipPathUnits="userSpaceOnUse"><path d="m298.121 646.957-16.808 30.145-16.805-30.145-33.399-6.332 22.536-24.469-3.364-34.551 31.032 15.821 31.027-15.821-3.36 34.551 22.54 24.469z"/></clipPath></defs><path d="M659.76 9.283c-1.097 0-2.1.588-2.637 1.547l-16.782 30.105-33.334 6.318a3.014 3.014 0 0 0-1.651 5.008l22.515 24.436-3.367 34.576a3.005 3.005 0 0 0 1.304 2.781c.508.354 1.1.524 1.693.524.467 0 .943-.106 1.373-.328l30.885-15.748 30.881 15.748c.438.222.906.328 1.372.328.597 0 1.185-.17 1.694-.524a3.017 3.017 0 0 0 1.31-2.781l-3.37-34.576 22.516-24.436a3.03 3.03 0 0 0 .65-2.993 3.023 3.023 0 0 0-2.306-2.015l-33.338-6.318L662.39 10.83a3.006 3.006 0 0 0-2.63-1.547" style="fill:#fff200;fill-opacity:1;fill-rule:nonzero;stroke:none;stroke-width:1.03951" transform="matrix(1.39827 0 0 1.39827 -606.436 -5.024)"/><g clip-path="url(#a)" transform="matrix(1.45351 0 0 -1.45351 -92.809 996.346)"><path d="m298.121 646.957-16.808 30.145-16.805-30.145-33.399-6.332 22.536-24.469-3.364-34.551 31.032 15.821 31.027-15.821-3.36 34.551 22.54 24.469-33.399 6.332" style="fill:#342b6f;fill-opacity:1;fill-rule:nonzero;stroke:none"/></g><path d="M659.76 9.283c-1.097 0-2.1.588-2.637 1.547l-16.782 30.105-33.334 6.318a3.014 3.014 0 0 0-1.651 5.008l22.515 24.436-3.367 34.576a3.005 3.005 0 0 0 1.304 2.781c.508.354 1.1.524 1.693.524.467 0 .943-.106 1.373-.328l30.885-15.748 30.881 15.748c.438.222.906.328 1.372.328.597 0 1.185-.17 1.694-.524a3.017 3.017 0 0 0 1.31-2.781l-3.37-34.576 22.516-24.436a3.03 3.03 0 0 0 .65-2.993 3.023 3.023 0 0 0-2.306-2.015l-33.338-6.318L662.39 10.83a3.006 3.006 0 0 0-2.63-1.547" style="fill:#fff200;fill-opacity:1;fill-rule:nonzero;stroke:none;stroke-width:1.03951" transform="matrix(1.39827 0 0 1.39827 -428.212 -1.204)"/><g clip-path="url(#b)" transform="matrix(1.45351 0 0 -1.45351 85.415 1000.166)"><path d="m298.121 646.957-16.808 30.145-16.805-30.145-33.399-6.332 22.536-24.469-3.364-34.551 31.032 15.821 31.027-15.821-3.36 34.551 22.54 24.469-33.399 6.332" style="fill:#342b6f;fill-opacity:1;fill-rule:nonzero;stroke:none"/></g><path d="M952.182 423.727c0-161.506-130.92-292.427-292.423-292.427-161.506 0-292.428 130.921-292.428 292.427 0 161.503 130.922 292.424 292.428 292.424 161.502 0 292.423-130.921 292.423-292.424" style="fill:#fff200;fill-opacity:1;fill-rule:nonzero;stroke:none;stroke-width:1.03951" transform="matrix(1.39827 0 0 1.39827 -505.76 -13.413)"/><path d="M944.65 423.727c0-157.344-127.551-284.895-284.89-284.895-157.345 0-284.892 127.551-284.892 284.895 0 157.34 127.547 284.892 284.891 284.892 157.34 0 284.891-127.552 284.891-284.892" style="fill:#342b6f;fill-opacity:1;fill-rule:nonzero;stroke:none;stroke-width:1.03951" transform="matrix(1.39827 0 0 1.39827 -505.76 -13.413)"/><path d="M846.668 423.727c0-103.228-83.677-186.913-186.909-186.913-103.228 0-186.913 83.685-186.913 186.913 0 103.22 83.685 186.91 186.913 186.91 103.232 0 186.909-83.69 186.909-186.91" style="fill:#fff200;fill-opacity:1;fill-rule:nonzero;stroke:none;stroke-width:1.03951" transform="matrix(1.39827 0 0 1.39827 -505.76 -13.413)"/><path d="M839.135 423.727c0-99.065-80.318-179.376-179.376-179.376-99.066 0-179.377 80.31-179.377 179.376 0 99.058 80.31 179.377 179.377 179.377 99.058 0 179.376-80.319 179.376-179.377" style="fill:#342b6f;fill-opacity:1;fill-rule:nonzero;stroke:none;stroke-width:1.03951" transform="matrix(1.39827 0 0 1.39827 -505.76 -13.413)"/><path d="M487.923 423.727c0 48.923 20.445 93.07 53.258 124.364V299.356c-32.813 31.29-53.258 75.441-53.258 124.371M669.808 555.697H649.71V293.423h20.1zm0-303.51v9.076H649.71v-9.075c-32.789 1.888-63.11 12.973-88.436 30.714V564.55c25.327 17.737 55.647 28.822 88.436 30.706v-11.418h20.1v11.418c32.789-1.884 63.113-12.962 88.432-30.706V282.902c-25.319-17.741-55.643-28.826-88.433-30.714M831.595 423.727c0-48.93-20.445-93.081-53.254-124.371V548.09c32.809-31.294 53.254-75.441 53.254-124.364" style="fill:#5595d6;fill-opacity:1;fill-rule:nonzero;stroke:none;stroke-width:1.03951" transform="matrix(1.39827 0 0 1.39827 -505.76 -13.413)"/><path d="M541.181 299.356V548.09a173.54 173.54 0 0 0 20.092 16.458V282.902a172.227 172.227 0 0 0-20.092 16.454M758.24 282.902V564.55a174.332 174.332 0 0 0 20.1-16.458V299.356a172.583 172.583 0 0 0-20.1-16.454M649.71 583.837v11.418c3.325.195 6.674.304 10.05.304 3.37 0 6.719-.109 10.048-.304v-11.418H649.71M669.808 261.263v-9.075c-3.33-.196-6.679-.305-10.049-.305-3.375 0-6.724.11-10.05.305v9.075h20.1M649.71 555.697h20.098V293.423H649.71v262.274" style="fill:#fff200;fill-opacity:1;fill-rule:nonzero;stroke:none;stroke-width:1.03951" transform="matrix(1.39827 0 0 1.39827 -505.76 -13.413)"/><path d="M675.567 497.48c1.53-26.812-14.732-32.627-11.958-69.116-9.945 12.223-17.478 40.12-17.075 70.801-33.245-22.739-98.916-28.185-133.995-16.201 42.205 4.015 63.645 89.43 147.22 63.983 83.58 25.447 105.007-59.968 147.217-63.983-34.19-11.68-97.454-6.802-131.409 14.516" style="fill:#b78335;fill-opacity:1;fill-rule:nonzero;stroke:none;stroke-width:1.03951" transform="matrix(1.39827 0 0 1.39827 -505.76 -13.413)"/><path d="M646.534 499.165c-.403-30.682 7.13-58.578 17.075-70.8-2.774 36.488 13.488 42.303 11.958 69.115 28.911-18.15 79.04-24.376 114.407-18.618 11.897-11.849 19.296-28.233 19.296-46.31 0-36.05-29.325-65.368-65.376-65.368-6.517 0-12.953.967-19.154 2.874.252-2.371.386-4.746.386-7.098 0-36.042-29.33-65.363-65.367-65.363-36.046 0-65.367 29.321-65.367 65.363 0 2.352.13 4.727.39 7.098a65.162 65.162 0 0 0-19.167-2.874c-36.046 0-65.368 29.317-65.368 65.367 0 18.078 7.391 34.462 19.301 46.31 36.443-5.932 88.565.862 116.986 20.304" style="fill:#000;fill-opacity:1;fill-rule:nonzero;stroke:none;stroke-width:1.03951" transform="matrix(1.39827 0 0 1.39827 -505.76 -13.413)"/><path d="M646.534 499.165c-.403-30.682 7.13-58.578 17.075-70.8-2.774 36.488 13.488 42.303 11.958 69.115 28.391-17.83 77.26-24.153 112.507-18.915 12.092-11.613 19.633-27.928 19.633-46.014 0-35.238-28.567-63.804-63.813-63.804a63.527 63.527 0 0 0-21.022 3.565c.447-3.057.69-6.176.69-9.352 0-35.233-28.565-63.804-63.803-63.804-35.242 0-63.804 28.571-63.804 63.804 0 3.176.235 6.295.682 9.352a63.453 63.453 0 0 0-21.022-3.565c-35.237 0-63.804 28.566-63.804 63.804 0 18.078 7.532 34.401 19.625 46.006 36.334-5.392 87.165 1.503 115.098 20.608" style="fill:#fff;fill-opacity:1;fill-rule:nonzero;stroke:none;stroke-width:1.03951" transform="matrix(1.39827 0 0 1.39827 -505.76 -13.413)"/><path d="m437.011 469.755-.65-2.416 7.894-2.12 4.304 16.026-7.89 2.12-.401-1.477-11.11 2.984c-2.656.706-4.402 1.438-5.23 2.173-.82.738-1.064 1.725-.727 2.972.28 1.035.881 1.672 1.811 1.928.914.256 2.599.049 5.047-.61l11.89-3.199-.419-1.57 7.886-2.12 3.163 11.776-7.89 2.107-.661-2.465-11.947 3.208c-3.045.812-5.652 1.063-7.82.751-2.156-.325-4.04-1.32-5.653-2.977-1.616-1.653-2.801-3.906-3.569-6.76-.621-2.295-.873-4.406-.763-6.331.081-1.96.568-3.618 1.457-4.979.87-1.368 2.06-2.513 3.57-3.45 1.457-.93 3.837-1.844 7.138-2.742l10.57-2.83M434.173 539.406l-12.791-29.342 7.146-3.115 23.653 7.106-3.236-7.438-3.87 1.693-2.972-6.822 10.728-4.682 12.58 28.842-6.347 2.77-24.79-7.5 3.736 8.568 4.276-1.856 3.02 6.924-11.133 4.852M467.713 543.556l-5.238 3.382 1.502 2.323c1.016 1.584 1.925 2.464 2.73 2.66.779.162 1.567-.008 2.346-.516a3.37 3.37 0 0 0 1.401-1.82c.26-.771-.231-2.131-1.474-4.06zm-10.46 6.74-5.648 3.634 1.523 2.375c.974 1.515 1.888 2.47 2.724 2.871.833.386 1.77.248 2.818-.426.979-.626 1.51-1.389 1.6-2.282.073-.873-.43-2.16-1.515-3.846zm-10.33 10.192-9.928-15.43 6.874-4.418 1.527 2.367 14.96-9.623-1.527-2.368 6.866-4.425 10.724 16.66c2.104 3.268 3.529 5.928 4.28 7.98.727 2.017.796 3.938.22 5.724-.605 1.82-1.738 3.257-3.404 4.325-1.623 1.044-3.223 1.4-4.795 1.064-1.624-.345-3.078-1.084-4.361-2.229.63 2.302.645 4.38.044 6.233-.62 1.875-1.733 3.33-3.341 4.365-1.93 1.234-3.947 1.705-6.047 1.4-2.09-.328-4.003-1.372-5.737-3.159-1.73-1.745-3.846-4.568-6.355-8.466M481.958 604.294l-20.705-22.975 6.07-5.474 1.685 1.868 13.213-11.906-1.717-1.908 6.07-5.462 20.734 23.004-8.11 7.308-5.692-6.313 2.039-1.835-4.93-5.474-3.902 3.512 4.296 4.763-5.157 4.65-4.296-4.764-4.158 3.744 4.933 5.474 2.043-1.84 5.692 6.314-8.108 7.314M516.83 633.376l-13.087-10.505 5.113-6.367 1.214.975.535-12.028 11.488-1.141-2.06-1.645 5.117-6.375 12.454 9.994-5.112 6.37-1.966-1.57-9.213.913-.626 13.997 1.255 1.007zm-15.726-12.62-13.705-10.993 5.112-6.375 1.924 1.544 11.13-13.88-1.98-1.579 5.112-6.375 13.765 11.044-5.116 6.363-2.002-1.604-11.126 13.88 2.001 1.603-5.115 6.372M536.987 645.131l-15.82-9.562 4.227-6.985 2.554 1.543 9.197-15.227-2.554-1.543 4.232-6.992 15.816 9.558-4.228 6.997-2.53-1.531-9.2 15.223 2.53 1.535-4.224 6.984M548.6 651.08l-6.618-3.066 4.6-9.928 6.62 3.066c-.465 3.066.397 5.108 2.585 6.111 1.58.74 2.676.434 3.298-.905.32-.69.317-1.397-.025-2.12-.353-.772-1.283-2.05-2.77-3.817-1.867-2.254-3.17-4.06-3.917-5.413-.707-1.246-1.12-2.708-1.255-4.393-.13-1.665.175-3.302.914-4.906 1.331-2.878 3.264-4.718 5.786-5.51 2.513-.8 5.059-.609 7.642.589 2.574 1.198 4.41 2.985 5.477 5.348l.89-1.909 6.668 3.086-4.09 8.816-6.578-3.046c.325-2.801-.532-4.681-2.578-5.636-1.442-.662-2.457-.345-3.054.942-.288.622-.3 1.19-.036 1.686.243.511 1.186 1.819 2.826 3.93 2.188 2.855 3.61 4.853 4.259 5.998.338.58.622 1.291.85 2.144.226.852.356 1.685.393 2.497.101 1.807-.24 3.565-1.02 5.258-1.201 2.6-3.134 4.366-5.802 5.312-2.68.982-5.417.82-8.206-.467-2.596-1.21-4.569-3.11-5.921-5.697l-.938 2.03M595.171 668.528l-17.424-5.266 2.363-7.825 2.68.808 5.15-17.022-3.57-1.076-1.794 5.94-5.824-1.758 4.162-13.765 30.764 9.299-4.162 13.765-5.824-1.758 1.8-5.945-3.55-1.068-5.152 17.022 2.744.837-2.363 7.812M623.725 648.388l-4.43 8.884 5.737.861zm-6.83 24.72-12.693-1.92 1.222-8.076 2.44.36 8.682-16.668-2.582-.394 1.222-8.08 23.044 3.492-1.222 8.08-2.584-.393 3.468 18.512 2.352.357-1.223 8.08-16.729-2.537 1.117-7.39 2.81.426-.577-4.438-8.202-1.235-2.047 4.028 2.623.398-1.12 7.399M657.306 676.755l-13.302.211-.13-8.162 2.843-.052-.294-17.782-2.837.049-.134-8.174 15.353-.244 12.08 17.648-.15-9.677-2.64.053-.134-8.174 13.075-.215.134 8.174-2.822.04.434 26.394-10.678.175-13.99-20.404.195 12.015 2.867-.049.13 8.174M721.277 669.32l-17.814 3.768-1.686-7.999 2.73-.58-3.675-17.4-3.654.771 1.29 6.07-5.948 1.264-2.977-14.062 31.442-6.651 2.972 14.061-5.949 1.26-1.288-6.071-3.625.759 3.687 17.412 2.801-.597 1.694 7.995M736.626 637.912l.386 9.92 5.453-1.998zm5.92 24.952-12.06 4.438-2.813-7.674 2.314-.853-.426-18.788-2.445.901-2.822-7.675 21.875-8.04 2.821 7.675-2.444.893 11.946 14.558 2.233-.813 2.822 7.663-15.884 5.839-2.578-7.025 2.667-.974-2.64-3.614-7.796 2.862.154 4.528 2.486-.926 2.59 7.025M774.511 649.285l-6.424 3.448-5.177-9.64 6.424-3.456c2.173 2.213 4.325 2.753 6.436 1.604 1.535-.82 1.962-1.876 1.259-3.175-.366-.678-.934-1.097-1.706-1.259-.84-.17-2.416-.203-4.718-.069-2.923.13-5.157.097-6.68-.126-1.421-.179-2.842-.73-4.263-1.632-1.421-.894-2.55-2.124-3.383-3.675-1.502-2.794-1.807-5.441-.933-7.938.872-2.486 2.558-4.406 5.067-5.758 2.497-1.34 5.023-1.734 7.56-1.166l-.994-1.855 6.469-3.477 4.596 8.56-6.383 3.432c-2.051-1.95-4.06-2.388-6.05-1.32-1.393.751-1.759 1.754-1.089 3.005.325.609.772.954 1.332 1.043.556.114 2.173.146 4.84.094 3.594-.029 6.051.028 7.362.203.65.073 1.389.272 2.213.609.82.325 1.563.723 2.234 1.177 1.51 1.003 2.708 2.335 3.593 3.98 1.349 2.517 1.612 5.128.76 7.829-.82 2.728-2.587 4.82-5.3 6.273-2.517 1.348-5.217 1.795-8.1 1.316l1.055 1.973M810.285 627.041l-13.631 10.253-4.914-6.53 1.957-1.47-10.687-14.22-1.99 1.5-4.913-6.526 13.672-10.286 4.913 6.53-1.664 1.25 3.126 4.159 6.002-4.516-3.127-4.15-1.677 1.26-4.901-6.53 13.652-10.266 4.905 6.53-1.949 1.473 10.687 14.208 1.95-1.47 4.912 6.538-13.65 10.266-4.914-6.53 1.672-1.267-3.357-4.466-6.003 4.507 3.363 4.475 1.665-1.251 4.9 6.53M857.847 582.26l-11.463 12.256-5.969-5.584 1.068-1.144-11.95-1.442-.252-11.545-1.808 1.917-5.96-5.57 10.902-11.667 5.969 5.583-1.726 1.84.215 9.258 13.908 1.685 1.105-1.17zm-13.778 14.72-12.007 12.832-5.961-5.583 1.685-1.803-12.981-12.154-1.738 1.856-5.97-5.583 12.06-12.88 5.962 5.583-1.76 1.868 12.995 12.15 1.759-1.869 5.956 5.583M878.475 551.799l-17.23 25.683-6.78-4.548 1.4-2.091-14.78-9.9-1.421 2.123-6.79-4.548 17.246-25.723 9.075 6.083-4.74 7.065-2.285-1.535-4.101 6.124 4.365 2.919 3.565-5.328 5.774 3.866-3.573 5.32 4.65 3.118 4.1-6.111-2.281-1.53 4.738-7.066 9.068 6.079M887.72 533.64l-5.53 12.096-7.43-3.386 1.176-2.583-16.18-7.386-1.179 2.586-7.43-3.39 6.375-13.981 21.123-3.317-8.8-4.013-1.088 2.396-7.438-3.39 5.429-11.898 7.43 3.395-1.165 2.566 24.018 10.955-4.438 9.714-24.432 3.857 10.931 4.995 1.19-2.611 7.438 3.395M906.318 481.226l-4.759 17.57-7.89-2.133.731-2.695-17.164-4.662-.974 3.602 5.99 1.628-1.596 5.863-13.876-3.751 8.414-31.028 13.866 3.756-1.583 5.88-5.99-1.624-.974 3.574 17.168 4.648.751-2.76 7.886 2.132M430.506 331.125l10.042 4.196 1.433-3.432c1.003-2.404 1.401-4.284 1.186-5.657-.228-1.323-1.308-2.39-3.228-3.191-1.26-.528-2.44-.686-3.553-.488-1.076.192-1.917.699-2.534 1.515-.593.78-1.328 2.213-2.201 4.309zm43.704 12.877-11.11 26.592-12.815-5.347 1.844-4.418-27.905-11.658-1.84 4.414-12.819-5.348 11.658-27.908c2.68-6.408 5.373-10.79 8.073-13.145 2.725-2.347 5.664-3.683 8.811-4.003 3.151-.321 6.254.15 9.303 1.43 3.772 1.57 6.558 3.71 8.357 6.407 1.815 2.708 2.725 5.656 2.712 8.856-.012 3.146-1.193 7.516-3.536 13.123l-2.965 7.098 7.504 3.135 1.913-4.58 12.815 5.352M465.171 274.529l9.766 13.57 5.454-6.943zm31.198 30.382-12.065 15.369-10.926-8.572 2.326-2.96-18.081-25.943-2.449 3.122-10.931-8.572 21.887-27.892 10.931 8.572-2.453 3.127 29.606 11.243 2.233-2.842 10.927 8.572-15.884 20.246-10.01-7.849 2.667-3.403-6.903-3.025-7.792 9.928 4.414 6.208 2.493-3.183 10.01 7.854M568.18 241.322l-20.887 14.67-7.98-11.369 1.938-1.356-18.338-7.302 2.38-18.447-3.277 2.307-7.988-11.366 19.872-13.956 7.988 11.361-3.135 2.202-1.909 14.8 21.35 8.495 1.999-1.405zm-25.09 17.627-21.875 15.365-7.983-11.366 3.078-2.156-17.383-24.745-3.163 2.22-7.988-11.36 21.96-15.43 7.983 11.36-3.188 2.247 17.38 24.737 3.192-2.238 7.987 11.366M597.851 231.491l-24.806 7.633-4.085-13.273 3.557-1.097-8.893-28.903-3.621 1.117-4.09-13.275 24.876-7.65 4.08 13.27-3.017.93 2.603 8.45 10.907-3.354-2.6-8.45-3.048.934-4.085-13.274 24.835-7.642 4.084 13.274-3.557 1.092 8.901 28.904 3.553-1.097 4.085 13.279-24.839 7.637-4.085-13.273 3.054-.939-2.798-9.087-10.911 3.358 2.798 9.092 3.017-.93 4.085 13.274M673.666 221.855h-27.68v-13.887h4.25v-30.244h-5.668v10.554h-9.254v-24.436h48.89v24.436h-9.258v-10.554h-5.632v30.244h4.352v13.887M720.303 186.077l-8.61 14.325 8.54 2.267zm-15.593 40.651-18.882-5.011 3.565-13.425 3.634.963 16.698-26.849-3.837-1.02 3.564-13.427 34.26 9.096-3.562 13.427-3.837-1.022 1.36 31.647 3.493.927-3.566 13.424-24.87-6.602 3.26-12.296 4.183 1.113.06-7.537-12.202-3.24-3.96 6.497 3.899 1.043-3.26 12.292M791.322 267.752l-21.683-13.47 7.328-11.795 2.01 1.25-.466-19.733 17.9-5.036-3.404-2.115 7.321-11.8 20.637 12.806-7.33 11.805-3.257-2.022-14.354 4.044.549 22.975 2.079 1.287zm-26.049-16.178-22.706-14.102 7.317-11.796 3.2 1.981 15.946-25.691-3.278-2.039 7.317-11.795 22.801 14.15-7.33 11.801-3.308-2.055-15.947 25.688 3.31 2.058-7.322 11.8M831.107 268.617c-4.904 4.199-7.856 7.439-8.872 9.708-1.076 2.254-.905 4.211.516 5.86 1.4 1.632 3.281 2.145 5.636 1.519 2.384-.642 6.058-3.098 11.045-7.366 4.832-4.142 7.785-7.362 8.872-9.656 1.064-2.254.873-4.22-.568-5.912-1.381-1.612-3.26-2.112-5.616-1.486-2.363.621-6.03 3.065-11.013 7.333zm-13.94-16.255c3.675-3.147 7.89-5.433 12.64-6.858 4.712-1.43 9.593-1.555 14.668-.382 1.787.422 3.443 1.023 4.946 1.803 1.51.775 2.993 1.75 4.455 2.924a30.533 30.533 0 0 1 4.182 4.077c5.758 6.712 7.89 13.883 6.428 21.53-.722 3.783-2.002 7.283-3.858 10.495-1.868 3.212-4.283 6.096-7.26 8.646-6.151 5.266-13.116 7.942-20.92 8.027-7.796.082-14.476-3.11-20.019-9.59-5.372-6.267-7.593-13.17-6.671-20.722.893-7.548 4.702-14.196 11.41-19.95M885.946 323.797l-10.192 4.275.82 1.962c1.076 2.57 1.9 4.275 2.47 5.115.588.907 1.448 1.519 2.577 1.84 1.076.337 2.303.224 3.696-.357 1.38-.58 2.343-1.385 2.882-2.4.557-1.035.711-2.112.447-3.228-.236-1.08-.913-2.948-2.03-5.608zm-40.333 20.956L835.25 320.04l12.798-5.377 1.555 3.696 27.885-11.699-1.552-3.694 12.812-5.376 10.362 24.712a133.509 133.509 0 0 1 2.458 6.241 72.35 72.35 0 0 1 1.664 5.031c.398 1.417.69 2.757.885 4.008.548 3.516-.101 6.822-1.94 9.928-1.877 3.143-4.658 5.49-8.354 7.042-2.76 1.16-5.534 1.603-8.303 1.327-2.742-.285-5.056-1.197-6.936-2.737l-9.603 11.407 1.372 3.268-12.803 5.376-6.87-16.38 17.683-19.068-2.347-5.592-9.034 3.792 1.442 3.436-12.811 5.372" style="fill:#fff200;fill-opacity:1;fill-rule:nonzero;stroke:none;stroke-width:1.03951" transform="matrix(1.39827 0 0 1.39827 -505.76 -13.413)"/><path d="M656.929 264.025a2.067 2.067 0 0 0-.224-.69 1.077 1.077 0 0 0-.93-.59h-.003c-.004 0-.02-.004-.045 0-.472.017-1.186.155-1.908.155-1.812 0-11.663.113-12.166.113-4.573 0-5.912-.113-6.404-.113a1.09 1.09 0 0 0-.695.235c-.255.2-.377.496-.381.788 0 0-.004.02.004.057v1.072c0-.025-.004-.013-.004.024.012.308.147.625.451.824.248.163.516.195.703.195h1.534c.939.15.618 0 .723.32 0 .37.073 5.747.073 7.415v2.676c0 6.477-.114 11.26-.15 12.069-.065.011-.15.016-.26.016H635.89c-.118.004-.357.008-.605.154a.992.992 0 0 0-.479.82s0 .045.011.106l-.007.958c0 .179.012.464.199.74.235.32.564.414.808.422h.044c.622 0 1.979-.118 5.64-.118 3.895 0 5.307.118 5.767.118h.02a1.1 1.1 0 0 0 .788-.313c.289-.293.304-.641.304-.808v-1.064a1.005 1.005 0 0 0-.45-.82 1.33 1.33 0 0 0-.698-.196h-2.258a1.398 1.398 0 0 1-.04-.352c.003-.017.003-.029 0-.033v-.02c0-.504-.037-6.916-.037-8.056v-.63c1.17.017 2.171.074 3.078.244.247.05.965.657 1.31 1.19.094.125.57 1.425.594 1.555.016.317.316.905 1.027.942h.02c.085 0 .159-.012.215-.02l.837-.195.244-.053v-.029c.36-.158.608-.511.653-.95a50.957 50.957 0 0 1-.19-4.035v-.2c-.004-.857.008-3.61.069-4.06v-.053c0-.244-.05-.512-.228-.735a1.007 1.007 0 0 0-.787-.39h-.029l-.784-.073c-.003 0-.011-.004-.044-.004a1.156 1.156 0 0 0-1.128.982c-.123.582-.387 1.316-.662 1.662-.508.702-1.117 1.052-1.393 1.067-.544.085-1.649.175-2.802.211v-.966c0-1.933.024-7.48.037-9.608 1.872.03 5.014.17 5.546.345.674.16 1.637.82 2.201 1.474 1.527 1.638 2.388 2.811 2.875 3.461.138.17.361.67 1.032.735.206.003.356-.042.454-.085l.788-.435c.37-.155.58-.528.592-.898v-.056c0-.09-.011-.187-.032-.272l-1.461-6.225M685.34 284.835a1.018 1.018 0 0 0-.425-.812l-.577-.524a1.05 1.05 0 0 0-.682-.272h-.008c-.013.004-.021 0-.021 0-.012-.008-.032-.008-.06.004-.622.065-.894.532-1.027.735-1.187 1.819-4.13 3.715-8.13 3.71 0 .005 0 0-.012 0 0-.002-.02-.006-.049 0-1.15-.023-2.924-.247-5.197-2.614-2.396-2.534-3.119-7.057-3.119-9.343v-.008l.012-.012v-.045c0-.049 0-.073-.012-.122.06-5.461 2.164-9.777 6.943-9.782 2.592.012 4.325 1.104 5.86 2.623 1.461 1.515 2.416 3.374 2.782 4.75.109.343.364.988 1.116 1.04.162 0 .305-.024.426-.073l.74-.198c.568-.13.783-.682.791-1.056v-.04c0-.106 0-.2-.02-.293-.163-.986-.76-6.753-.84-8.04l-.013-.182v-.05c-.008-.223.032-.67-.333-1.064-.438-.377-.864-.336-1.109-.345h-.17c-.195 0-.378 0-.589.062-.459.13-.67.466-.751.787l-.113.357c-1.51-.771-4.305-1.583-7.703-1.587.007 0 0-.004-.021-.004-4.852 0-8.214 1.917-10.455 4.39-2.774 3.012-4.077 6.784-4.077 10.882 0 0 0 .037.004.065.011 3.44 1.331 7.979 4.344 10.744 2.428 2.23 5.34 3.728 10.395 3.728h.114c5.612 0 9.49-3.31 11.744-6.66.133-.203.243-.434.243-.723v-.028" style="fill:#000;fill-opacity:1;fill-rule:nonzero;stroke:none;stroke-width:1.03951" transform="matrix(1.39827 0 0 1.39827 -505.76 -13.413)"/><path d="M644.085 277.383c1.462 0 2.997-.117 3.708-.231.633-.077 1.344-.568 1.944-1.372.41-.536.674-1.34.825-2.026.036-.192.145-.305.3-.305l.857.077c.155 0 .223.114.223.264-.068.65-.068 3.821-.068 4.358 0 1.372.109 3.206.186 3.966 0 .192-.077.268-.264.309l-.825.186c-.15.045-.264-.073-.296-.303-.077-.302-.487-1.45-.71-1.832-.455-.65-1.165-1.332-1.84-1.527-1.197-.228-2.505-.268-4.04-.268v1.45c0 1.148.037 7.564.037 8.056 0 1.035.377 1.222.897 1.222h2.21c.227 0 .34.077.34.227v1.031c0 .228-.077.309-.3.309-.374 0-1.873-.113-5.767-.113-3.67 0-5.091.113-5.648.113-.154 0-.227-.081-.227-.345v-1.027c0-.158.11-.195.264-.195h1.307c.788 0 1.084-.15 1.121-.76.04-.767.154-5.578.154-12.145v-2.672c0-1.68-.077-7.065-.077-7.447 0-.722-.524-1.104-1.535-1.104h-1.534c-.224 0-.338-.078-.338-.227v-1.11c0-.153.114-.226.264-.226.415 0 1.836.11 6.4.11.523 0 10.366-.11 12.166-.11.82 0 1.648-.16 1.949-.16.186 0 .296.233.369.65l1.461 6.226c.038.154 0 .267-.113.309l-.752.414c-.186.077-.26 0-.524-.378-.482-.65-1.384-1.868-2.914-3.512-.68-.764-1.685-1.49-2.588-1.718-.929-.268-4.9-.386-6.585-.386 0 .5-.037 8.097-.037 10.428v1.794M663.394 287.921c-2.77-2.522-4.082-6.915-4.082-10.197 0-3.934 1.238-7.483 3.858-10.346 2.132-2.326 5.238-4.126 9.88-4.126 3.41 0 6.212.878 7.52 1.604.527.269.71.228.791-.036l.297-.954c.08-.228.15-.228.71-.228.568 0 .638.078.638.61 0 .727.67 7.22.865 8.36.04.268 0 .464-.196.496l-.82.232c-.183.072-.337-.078-.446-.42-.406-1.525-1.422-3.474-2.997-5.116-1.604-1.604-3.593-2.866-6.436-2.866-5.462 0-7.784 5.08-7.744 10.728 0 2.408.67 7.102 3.33 9.965 2.424 2.558 4.569 2.867 5.836 2.867 4.263 0 7.451-1.99 8.831-4.085.195-.305.378-.463.56-.305l.638.569c.113.076.154.231 0 .462-2.173 3.2-5.794 6.299-11.073 6.299-4.986 0-7.606-1.377-9.96-3.513M608.108 563.485h-7.155v-3.248h15.235V579.3h-8.08v-15.816M651.329 566.6c0-2.01-3.253-3.35-7.049-3.35-3.906 0-7.049 1.441-7.049 3.35 0 1.928 2.985 3.431 6.996 3.431 3.687 0 7.102-1.292 7.102-3.403zM635.822 579.3l7.536-5.027c.597-.406 1.19-.772 1.734-1.158-.435.102-1.95.285-3.2.285-6.18 0-12.738-2.241-12.738-6.437 0-4.12 6.668-7.085 14.964-7.085 4.933 0 9.217.893 11.82 2.465 2.44 1.323 3.358 3.18 3.358 4.62 0 2.01-1.73 3.635-3.626 5.023l-10.52 7.314h-9.328M688.257 560.237v3.248h-14.915l-1.402 3.764c1.19-.366 2.762-.804 6.233-.804 9.055 0 13.392 3.586 13.392 6.387 0 3.127-5.046 6.83-14.914 6.83-7.755 0-13.713-2.294-14.801-5.591h8.133c.873 1.32 3.582 2.221 6.456 2.221 3.798 0 7.046-1.523 7.046-3.35 0-1.754-2.814-3.358-7.098-3.358-1.897 0-4.447.317-6.24 1.807l-6.56-.772 3.522-10.382h21.148M702.416 572.914c0 2.03 3.248 3.378 6.943 3.378 4.012 0 7.159-1.47 7.159-3.378 0-1.909-3.038-3.4-7.106-3.4-3.586 0-6.996 1.288-6.996 3.372zm15.503-12.677-7.532 5.023c-.54.385-1.137.75-1.738 1.157.438-.102 1.949-.284 3.2-.284 6.13 0 12.737 2.245 12.737 6.448 0 4.122-6.72 7.081-14.963 7.081-4.934 0-9.267-.901-11.816-2.477-2.437-1.307-3.358-3.166-3.358-4.604 0-2.015 1.734-3.634 3.634-5.027l10.517-7.317h9.319" style="fill:#fff;fill-opacity:1;fill-rule:nonzero;stroke:none;stroke-width:1.03951" transform="matrix(1.39827 0 0 1.39827 -505.76 -13.413)"/><path d="M431.497 371.72c-20.003 0-36.217 16.213-36.217 36.224 0 19.994 16.214 36.22 36.217 36.22 20.006 0 36.224-16.226 36.224-36.22 0-20.01-16.218-36.225-36.224-36.225" style="fill:#000;fill-opacity:1;fill-rule:nonzero;stroke:none;stroke-width:1.03951" transform="matrix(1.39827 0 0 1.39827 -505.76 -13.413)"/><path d="M439.918 435.8a6.088 6.088 0 0 1-.475.15c-1.051.304-3.508.934-6.087.934-2.29 0-4.629-.5-6.22-2.03a203.842 203.842 0 0 1-1.933-7.451c-.337-1.43-.565-2.458-.662-2.904.329-.434 1.031-1.198 1.888-2.071 1.503-1.53 3.513-3.44 5.14-4.974 1.272-1.185 2.307-2.132 2.705-2.497l12.478.86c.638.825 3.257 4.572 3.31 11.471-.114.134-.297.345-.557.642-1.368 1.543-4.734 4.982-9.587 7.87M414.414 438.557a34.615 34.615 0 0 1-6.846-4.995c-.074-.09-.337-.401-.707-.889-1.336-1.75-3.975-5.745-3.943-8.857 0-.292.029-.575.073-.86l8.093-4.223 12.336 6.038c.236 1.088 1.182 5.319 2.603 10.407-.317 1.43-1.385 2.294-2.928 2.863-1.571.569-3.545.743-5.213.743-1.003 0-1.889-.065-2.53-.114a22.76 22.76 0 0 1-.938-.113M396.433 407.944c0-2.664.297-5.25.861-7.728.008-.04.033-.121.082-.264.223-.65.901-2.347 2.314-3.95 1.36-1.552 3.374-3.026 6.363-3.493l7.248 10.558c-.085.702-.39 3.037-.82 5.758-.5 3.135-1.186 6.781-1.88 8.852l-8.186 4.284c-.662-.243-1.426-1.015-2.12-2.132-1.149-1.827-2.124-4.466-2.794-6.631-.609-1.965-.97-3.532-1.035-3.805-.016-.486-.032-.961-.032-1.449M414.312 382.127c.126-.04.35-.102.674-.183 1.54-.373 5.194-1.157 9.506-1.157 1.247 0 2.538.068 3.854.223.032.02.06.04.101.069.963.662 4.99 3.728 7.021 9.534-.999 1.219-5.36 6.559-8.438 10.794-.118.04-.309.089-.56.158-1.438.398-4.792 1.197-8.377 1.197-1.28 0-2.587-.109-3.846-.36l-7.26-10.57c.085-.17.215-.427.378-.731 1.003-1.93 3.484-6.132 6.947-8.974M451.008 382.472c-2.883-1.592-5.929-3.46-8.255-4.934-1.986-1.246-3.444-2.213-3.87-2.49-.317-.69-.902-1.233-1.539-1.693a35.054 35.054 0 0 1 18.545 9.393 31.792 31.792 0 0 0-4.244-.289c-.207 0-.422 0-.637.013M446.842 414.665l-12.466-.865c-.15-.204-.402-.55-.719-1.016-1.571-2.254-4.771-7.215-5.64-10.761 1.701-2.342 3.796-5.023 5.49-7.147a288.29 288.29 0 0 1 2.94-3.634c.036-.007.077-.02.125-.032a20.44 20.44 0 0 1 4.077-.394c2.047 0 4.589.292 7.151 1.332.434.293 4.487 3.224 7.22 12.868-.114.174-.289.438-.528.792-1.263 1.872-4.231 5.953-7.65 8.857" style="fill:#fff;fill-opacity:1;fill-rule:nonzero;stroke:none;stroke-width:1.03951" transform="matrix(1.39827 0 0 1.39827 -505.76 -13.413)"/><path d="M463.56 405.536c-.748.13-1.47.182-2.149.182a14.459 14.459 0 0 1-5.12-.954 1.562 1.562 0 0 0-.167-.068c-2.521-8.938-6.237-12.41-7.398-13.311.158-.589.479-1.779.873-3.119.495-1.685 1.125-3.602 1.62-4.637.142 0 .284-.013.426-.013 1.6 0 3.086.134 4.162.29.532.068.967.15 1.255.223.098.015.179.049.236.068a34.9 34.9 0 0 1 8.832 18.22l-2.57 3.119M434.238 372.978c.089.032.24.094.454.195.484.223 1.223.601 1.876 1.043.488.338.91.724 1.145 1.069-.974.771-4.093 3.004-9.23 4.576a34.78 34.78 0 0 0-3.99-.231c-5.474.007-9.868 1.21-10.538 1.4-1.576-.028-2.254-.535-2.611-.974a1.833 1.833 0 0 1-.317-.59 34.87 34.87 0 0 1 20.47-6.597c.926 0 1.84.04 2.74.109M456.295 432.733a34.98 34.98 0 0 1-14.062 8.585 2.786 2.786 0 0 1-.995-.666c-.414-.45-.8-1.12-.804-2.287 0-.466.07-1.027.236-1.664 6.131-3.683 9.879-8.182 10.374-8.791a36.931 36.931 0 0 1 7.31-4.162c.97-.407 1.762-.69 2.31-.873.26-.082.455-.143.597-.183l1.56 1.015a35.216 35.216 0 0 1-6.526 9.026M463.328 422.66l-1.247-.808c.617-1.523 2.477-6.619 2.481-13.047 0-.833-.036-1.673-.105-2.538l1.88-2.287c.15 1.3.227 2.624.227 3.964 0 5.254-1.157 10.24-3.236 14.715" style="fill:#fff;fill-opacity:1;fill-rule:nonzero;stroke:none;stroke-width:1.03951" transform="matrix(1.39827 0 0 1.39827 -505.76 -13.413)"/><path d="M888.017 371.72c-20.01 0-36.22 16.213-36.22 36.224 0 19.994 16.21 36.22 36.22 36.22 20.007 0 36.22-16.226 36.22-36.22 0-20.01-16.213-36.225-36.22-36.225" style="fill:#000;fill-opacity:1;fill-rule:nonzero;stroke:none;stroke-width:1.03951" transform="matrix(1.39827 0 0 1.39827 -505.76 -13.413)"/><path d="M896.443 435.8a8.856 8.856 0 0 1-.488.15c-1.048.304-3.504.934-6.082.934-2.294 0-4.629-.5-6.221-2.03a202.093 202.093 0 0 1-1.929-7.451c-.337-1.43-.568-2.458-.662-2.904.325-.434 1.027-1.198 1.889-2.071 1.494-1.53 3.504-3.44 5.136-4.974a252.376 252.376 0 0 1 2.712-2.497l12.474.86c.643.825 3.261 4.572 3.31 11.471-.11.134-.304.345-.556.642-1.373 1.543-4.743 4.982-9.583 7.87M870.93 438.557a34.33 34.33 0 0 1-6.842-4.995c-.081-.09-.333-.401-.711-.889-1.34-1.75-3.967-5.745-3.946-8.857 0-.292.028-.575.081-.86l8.088-4.223 12.336 6.038c.232 1.088 1.186 5.319 2.6 10.407-.305 1.43-1.381 2.294-2.924 2.863-1.563.569-3.546.743-5.21.743-1.003 0-1.896-.065-2.526-.114a21.06 21.06 0 0 1-.946-.113M852.954 407.944c0-2.664.292-5.25.852-7.728.02-.04.04-.121.082-.264.231-.65.913-2.347 2.314-3.95 1.368-1.552 3.379-3.026 6.375-3.493l7.249 10.558c-.094.702-.398 3.037-.833 5.758-.5 3.135-1.177 6.781-1.868 8.852l-8.194 4.284c-.658-.243-1.43-1.015-2.12-2.132-1.148-1.827-2.123-4.466-2.793-6.631-.609-1.965-.962-3.532-1.036-3.805-.02-.486-.028-.961-.028-1.449M870.828 382.127c.123-.04.345-.102.67-.183 1.543-.373 5.198-1.157 9.514-1.157 1.24 0 2.539.068 3.845.223.034.02.062.04.102.069.967.662 4.995 3.728 7.025 9.534-.995 1.219-5.36 6.559-8.433 10.794-.123.04-.317.089-.56.158-1.442.398-4.793 1.197-8.374 1.197-1.29 0-2.599-.109-3.857-.36l-7.249-10.57c.081-.17.204-.427.366-.731 1.014-1.93 3.492-6.132 6.951-8.974M907.528 382.472c-2.883-1.592-5.928-3.46-8.255-4.934a169.362 169.362 0 0 1-3.866-2.49c-.325-.69-.913-1.233-1.542-1.693 7.146 1.207 13.55 4.569 18.536 9.393a31.606 31.606 0 0 0-4.243-.289c-.204 0-.419 0-.63.013M903.353 414.665l-12.465-.865c-.142-.204-.394-.55-.719-1.016-1.563-2.254-4.771-7.215-5.636-10.761 1.698-2.342 3.796-5.023 5.494-7.147 1.43-1.806 2.579-3.2 2.931-3.634.042-.007.082-.02.134-.032.61-.13 2.113-.394 4.081-.394 2.039 0 4.576.292 7.147 1.332.426.293 4.488 3.224 7.216 12.868-.11.174-.284.438-.528.792-1.267 1.872-4.231 5.953-7.655 8.857" style="fill:#fff;fill-opacity:1;fill-rule:nonzero;stroke:none;stroke-width:1.03951" transform="matrix(1.39827 0 0 1.39827 -505.76 -13.413)"/><path d="M920.075 405.536c-.75.13-1.474.182-2.152.182a14.423 14.423 0 0 1-5.116-.954c-.06-.028-.114-.053-.162-.068-2.53-8.938-6.233-12.41-7.403-13.311.154-.589.48-1.779.873-3.119.5-1.685 1.13-3.602 1.624-4.637.143 0 .285-.013.419-.013 1.604 0 3.085.134 4.161.29.537.068.975.15 1.259.223.102.015.183.049.244.068a34.89 34.89 0 0 1 8.82 18.22l-2.567 3.119M890.758 372.978a13.516 13.516 0 0 1 2.323 1.238c.486.338.914.724 1.149 1.069-.974.771-4.093 3.004-9.23 4.576a34.857 34.857 0 0 0-3.988-.231c-5.481.007-9.867 1.21-10.536 1.4-1.576-.028-2.254-.535-2.612-.974a2.076 2.076 0 0 1-.325-.59 34.897 34.897 0 0 1 20.478-6.597c.921 0 1.835.04 2.74.109M912.807 432.733a34.962 34.962 0 0 1-14.05 8.585 2.877 2.877 0 0 1-1.007-.666c-.414-.45-.8-1.12-.8-2.287 0-.466.07-1.027.244-1.664 6.119-3.683 9.876-8.182 10.362-8.791a37.16 37.16 0 0 1 7.31-4.162c.974-.407 1.766-.69 2.314-.873.256-.082.46-.143.6-.183l1.553 1.015a35.129 35.129 0 0 1-6.526 9.026M919.84 422.66l-1.24-.808c.61-1.523 2.478-6.619 2.478-13.047 0-.833-.04-1.673-.1-2.538l1.879-2.287c.142 1.3.223 2.624.223 3.964 0 5.254-1.157 10.24-3.24 14.715" style="fill:#fff;fill-opacity:1;fill-rule:nonzero;stroke:none;stroke-width:1.03951" transform="matrix(1.39827 0 0 1.39827 -505.76 -13.413)"/></svg>